# xmcd
#
# Track frame offsets:
#   150
#   26775
#   48450
#   76050
#   104850
#   133875
#   153450
#   176700
#   203475
#   227100
#   248175
#
# Disc length: 3588 seconds
#
# Revision: 0
# Processed by: cddbd v1.5.2PL0 Copyright (c) Steve Scherf et al.
# Submitted via: GXTranscoder 2.0.1939
#
DISCID=960e020b
DTITLE=tyutryu - uytru
DYEAR=1900
DGENRE=fsfdhg
TTITLE0=tryrt
TTITLE1=fdgdfg
TTITLE2=fdgdfg
TTITLE3=fdgdgfd
TTITLE4=asdadAD
TTITLE5=ASDasf
TTITLE6=ASDasdas
TTITLE7=dsaag
TTITLE8=dfgsdfg
TTITLE9=gfdhsrh
TTITLE10=dsfhsgfh
EXTD=fdhsdfhstfdh
EXTT0=
EXTT1=
EXTT2=
EXTT3=
EXTT4=
EXTT5=
EXTT6=
EXTT7=
EXTT8=
EXTT9=
EXTT10=
PLAYORDER=
